<svg width="50" height="34" viewBox="0 0 50 34" fill="none" xmlns="http://www.w3.org/2000/svg">
<path d="M37 2H7C4.23858 2 2 4.23858 2 7V27C2 29.7614 4.23858 32 7 32H37C39.7614 32 42 29.7614 42 27V7C42 4.23858 39.7614 2 37 2Z" stroke="url(#paint0_linear_460_1053)" stroke-width="3" stroke-linecap="round" stroke-linejoin="round"/>
<path d="M42 12C42 10.6193 43.1193 9.5 44.5 9.5H47C48.3807 9.5 49.5 10.6193 49.5 12V22C49.5 23.3807 48.3807 24.5 47 24.5H44.5C43.1193 24.5 42 23.3807 42 22V12Z" fill="url(#paint1_linear_460_1053)"/>
<path d="M7 8.25C7 7.55964 7.55964 7 8.25 7H13.25C13.9404 7 14.5 7.55964 14.5 8.25V25.75C14.5 26.4404 13.9404 27 13.25 27H8.25C7.55964 27 7 26.4404 7 25.75V8.25Z" fill="url(#paint2_linear_460_1053)"/>
<path d="M17 8.25C17 7.55964 17.5596 7 18.25 7H23.25C23.9404 7 24.5 7.55964 24.5 8.25V25.75C24.5 26.4404 23.9404 27 23.25 27H18.25C17.5596 27 17 26.4404 17 25.75V8.25Z" fill="url(#paint3_linear_460_1053)"/>
<defs>
<linearGradient id="paint0_linear_460_1053" x1="22" y1="2" x2="22" y2="32" gradientUnits="userSpaceOnUse">
<stop stop-color="#06D0AC"/>
<stop offset="1" stop-color="#27FF71"/>
</linearGradient>
<linearGradient id="paint1_linear_460_1053" x1="45.75" y1="9.5" x2="45.75" y2="24.5" gradientUnits="userSpaceOnUse">
<stop stop-color="#06D0AC"/>
<stop offset="1" stop-color="#27FF71"/>
</linearGradient>
<linearGradient id="paint2_linear_460_1053" x1="10.75" y1="7" x2="10.75" y2="27" gradientUnits="userSpaceOnUse">
<stop stop-color="#06D0AC"/>
<stop offset="1" stop-color="#27FF71"/>
</linearGradient>
<linearGradient id="paint3_linear_460_1053" x1="20.75" y1="7" x2="20.75" y2="27" gradientUnits="userSpaceOnUse">
<stop stop-color="#06D0AC"/>
<stop offset="1" stop-color="#27FF71"/>
</linearGradient>
</defs>
</svg>
