<svg width="25" height="25" viewBox="0 0 25 25" fill="none" xmlns="http://www.w3.org/2000/svg">
<path d="M9.85577 20.0929C5.04808 21.5048 5.04808 17.7397 3.125 17.2691M16.5865 22.9167V19.274C16.6226 18.8252 16.5607 18.374 16.4048 17.9504C16.249 17.5268 16.0028 17.1406 15.6827 16.8173C18.7019 16.4879 21.875 15.3678 21.875 10.2285C21.8748 8.91433 21.3584 7.65057 20.4327 6.69877C20.871 5.54902 20.84 4.27818 20.3462 3.15022C20.3462 3.15022 19.2115 2.82078 16.5865 4.54328C14.3827 3.95859 12.0596 3.95859 9.85577 4.54328C7.23077 2.82078 6.09615 3.15022 6.09615 3.15022C5.60228 4.27818 5.57129 5.54902 6.00962 6.69877C5.07705 7.65763 4.56012 8.93281 4.56731 10.2567C4.56731 15.3584 7.74038 16.4785 10.7596 16.8455C10.4433 17.1655 10.1993 17.5472 10.0436 17.9656C9.88784 18.384 9.82385 18.8298 9.85577 19.274V22.9167" stroke="white" stroke-width="2" stroke-linecap="round" stroke-linejoin="round"/>
</svg>
