<svg width="20" height="20" viewBox="0 0 20 20" fill="none" xmlns="http://www.w3.org/2000/svg">
<g clip-path="url(#clip0_355_875)">
<path fill-rule="evenodd" clip-rule="evenodd" d="M4.30302 9.99989C4.30302 9.36478 4.4085 8.75589 4.59677 8.18478L1.30143 5.66833C0.659187 6.97233 0.29734 8.44167 0.29734 9.99989C0.29734 11.5568 0.658742 13.0252 1.3001 14.3283L4.59366 11.807C4.40717 11.2386 4.30302 10.6319 4.30302 9.99989Z" fill="#FBBC05"/>
<path fill-rule="evenodd" clip-rule="evenodd" d="M10.089 4.22217C11.4687 4.22217 12.715 4.71106 13.6941 5.51106L16.5426 2.66661C14.8068 1.1555 12.5814 0.222168 10.089 0.222168C6.21952 0.222168 2.89391 2.43506 1.30143 5.66839L4.59677 8.18483C5.35607 5.87995 7.52047 4.22217 10.089 4.22217Z" fill="#EB4335"/>
<path fill-rule="evenodd" clip-rule="evenodd" d="M10.089 15.7777C7.52047 15.7777 5.35607 14.12 4.59677 11.8151L1.30143 14.3311C2.89391 17.5648 6.21952 19.7777 10.089 19.7777C12.4773 19.7777 14.7574 18.9297 16.4687 17.3408L13.3407 14.9226C12.4581 15.4786 11.3468 15.7777 10.089 15.7777Z" fill="#34A853"/>
<path fill-rule="evenodd" clip-rule="evenodd" d="M19.4356 9.99995C19.4356 9.42217 19.3466 8.79995 19.2131 8.22217H10.089V11.9999H15.3409C15.0783 13.2879 14.3635 14.2782 13.3407 14.9226L16.4687 17.3408C18.2664 15.6724 19.4356 13.1871 19.4356 9.99995Z" fill="#4285F4"/>
</g>
<defs>
<clipPath id="clip0_355_875">
<rect width="20" height="20" fill="white"/>
</clipPath>
</defs>
</svg>
