<svg width="37" height="43" viewBox="0 0 37 43" fill="none" xmlns="http://www.w3.org/2000/svg">
<path d="M18.6455 41C-0.223586 29.7165 -2.89871 20.1109 5.60828 1.95552C15.5728 0.882729 21.1595 0.494926 31.124 1.95552C39.368 20.442 36.563 28.9731 18.6455 41Z" fill="white" stroke="black" stroke-width="2"/>
<path d="M12.9338 12.3129C12.5919 12.3129 12.2777 12.1993 12.0192 12.0103H11.908C11.562 12.0103 11.2811 12.2974 11.2811 12.6525C11.2811 13.0067 11.562 13.2938 11.908 13.2938H15.2319C15.4683 13.2938 15.7469 13.1554 15.7469 12.8111C15.7469 12.479 15.4843 12.3129 15.2268 12.3129H12.9338ZM26.918 16.318C26.4754 16.318 26.0479 16.3819 25.6374 16.4893L23.5479 10.8617C23.4607 10.6263 23.2346 10.4887 23.0009 10.5041C22.9885 10.5028 22.976 10.5 22.9628 10.5H21.103C20.8399 10.5 20.6264 10.7186 20.6264 10.988C20.6264 11.2571 20.8399 11.4754 21.103 11.4754H22.6036L23.3307 13.4339H14.0995C14.0174 13.4339 13.9397 13.4532 13.8701 13.4869C13.7724 13.5253 13.6866 13.5944 13.6293 13.6939L11.8411 16.8342C11.1688 16.5068 10.4204 16.318 9.62746 16.318C6.7753 16.318 4.45454 18.6938 4.45454 21.6136C4.45454 24.5339 6.7753 26.9091 9.62746 26.9091C12.3193 26.9091 14.5348 24.7934 14.7763 22.1015H15.844C16.0502 22.8056 16.6801 23.3212 17.4345 23.3212C18.3559 23.3212 19.1024 22.5574 19.1024 21.6141C19.1024 21.2936 19.0111 20.9977 18.8619 20.7424L23.8035 14.7091L24.6105 16.8814C22.915 17.7513 21.7454 19.5429 21.7454 21.6136C21.7454 24.5339 24.0653 26.9091 26.918 26.9091C29.7701 26.9091 32.0909 24.5339 32.0909 21.6136C32.0909 18.6938 29.7701 16.318 26.918 16.318ZM10.5003 21.1253L12.1779 18.1801C13.0712 18.8767 13.6866 19.9261 13.8191 21.1253H10.5003ZM12.6607 17.3332L14.0628 14.8713L16.3341 20.3403C16.1042 20.5478 15.9347 20.8175 15.844 21.1253H14.7763C14.6366 19.5677 13.8334 18.2064 12.6607 17.3332ZM17.4345 19.9065C17.405 19.9065 17.3775 19.914 17.3484 19.9153L15.1223 14.556H22.4994L18.0223 20.0209C17.8385 19.9502 17.642 19.9065 17.4345 19.9065ZM9.62746 25.9337C7.3005 25.9337 5.40751 23.9954 5.40751 21.6136C5.40751 19.2318 7.3005 17.294 9.62746 17.294C10.2455 17.294 10.8306 17.4341 11.3599 17.6794L9.66525 20.6548C9.65256 20.6548 9.64014 20.6514 9.62746 20.6514C9.1082 20.6514 8.68663 21.0817 8.68663 21.6141C8.68663 22.146 9.1082 22.5768 9.62746 22.5768C9.97237 22.5768 10.2703 22.3848 10.4347 22.1015H13.8191C13.5813 24.2543 11.7933 25.9337 9.62746 25.9337ZM26.918 25.9337C24.5905 25.9337 22.6981 23.9954 22.6981 21.6136C22.6981 19.959 23.6124 18.5202 24.95 17.7958L26.1588 21.0502C26.0457 21.2088 25.9774 21.4025 25.9774 21.6141C25.9774 22.146 26.3985 22.5768 26.918 22.5768C27.4378 22.5768 27.8583 22.146 27.8583 21.6141C27.8583 21.1833 27.5816 20.8236 27.2008 20.6998L25.9774 17.4056C26.2811 17.3351 26.5941 17.294 26.918 17.294C29.2444 17.294 31.1379 19.2318 31.1379 21.6136C31.1379 23.9954 29.2444 25.9337 26.918 25.9337Z" fill="black"/>
</svg>
