<svg width="37" height="43" fill="none" xmlns="http://www.w3.org/2000/svg">
  <path d="M18.6 41C-.2 29.7-2.9 20.1 5.6 2 15.6.9 21.2.5 31.1 2c8.3 18.4 5.5 27-12.5 39Z" stroke="url(#a)" stroke-width="2"/>
  <path d="M13 12.3c-.4 0-.7-.1-1-.3-.4 0-.7.3-.7.7 0 .3.3.6.6.6h3.3c.3 0 .5-.1.5-.5 0-.3-.2-.5-.5-.5H13Zm14 4a5 5 0 0 0-1.4.2l-2-5.6c-.1-.3-.4-.4-.6-.4h-2c-.3 0-.5.2-.5.5s.2.5.5.5h1.5l.7 2H14c-.1 0-.2 0-.3.2l-1.8 3.1a5 5 0 0 0-2.2-.5 5.2 5.2 0 0 0-5.1 5.3c0 3 2.3 5.3 5.1 5.3 2.7 0 5-2.1 5.2-4.8h1c.3.7.9 1.2 1.6 1.2 1 0 1.7-.7 1.7-1.7 0-.3 0-.6-.2-.9l4.9-6 .8 2.2a5.3 5.3 0 0 0-2.9 4.7c0 3 2.4 5.3 5.2 5.3 2.9 0 5.2-2.4 5.2-5.3 0-3-2.3-5.3-5.2-5.3Zm-16.5 4.8 1.7-3c.9.8 1.5 1.8 1.6 3h-3.3Zm2.2-3.8L14 15l2.2 5.4-.5.8h-1a6 6 0 0 0-2.1-3.8Zm4.7 2.6L15 14.6h7.4L18 20h-.6Zm-7.8 6a4.2 4.2 0 0 1-4.2-4.3 4.2 4.2 0 0 1 6-3.9l-1.7 3a1 1 0 0 0-1 1c0 .4.4.9 1 .9.3 0 .6-.2.7-.5h3.4c-.2 2.2-2 3.8-4.2 3.8ZM27 26a4.2 4.2 0 0 1-4.2-4.3c0-1.6 1-3 2.3-3.8l1.2 3.3a1 1 0 0 0 .7 1.5c.5 0 1-.5 1-1a1 1 0 0 0-.7-.9L26 17.4l1-.1c2.2 0 4.1 2 4.1 4.3 0 2.4-1.9 4.3-4.2 4.3Z" fill="url(#b)"/>
  <defs>
    <linearGradient id="a" x1="18.3" y1="1" x2="18.3" y2="41" gradientUnits="userSpaceOnUse">
      <stop stop-color="#574EB1"/>
      <stop offset="1" stop-color="#0656D0"/>
    </linearGradient>
    <linearGradient id="b" x1="18.3" y1="10.5" x2="18.3" y2="26.9" gradientUnits="userSpaceOnUse">
      <stop stop-color="#574EB1"/>
      <stop offset="1" stop-color="#0656D0"/>
    </linearGradient>
  </defs>
</svg>